<?xml version="1.0" encoding="UTF-8"?>
<svg xmlns="http://www.w3.org/2000/svg" xmlns:xlink="http://www.w3.org/1999/xlink" viewBox="0 0 192 192" width="192px" height="192px">
<g id="surface87008024">
<path style=" stroke:none;fill-rule:nonzero;fill:rgb(69.01961%,0%,12.54902%);fill-opacity:1;" d="M 39.921875 31.921875 C 36.667969 31.921875 33.734375 33.894531 32.511719 36.910156 C 31.285156 39.929688 32.011719 43.386719 34.34375 45.65625 L 84.6875 96 L 34.34375 146.34375 C 32.253906 148.351562 31.410156 151.328125 32.144531 154.132812 C 32.875 156.9375 35.0625 159.125 37.867188 159.855469 C 40.671875 160.589844 43.648438 159.746094 45.65625 157.65625 L 96 107.3125 L 146.34375 157.65625 C 148.351562 159.746094 151.328125 160.589844 154.132812 159.855469 C 156.9375 159.125 159.125 156.9375 159.855469 154.132812 C 160.589844 151.328125 159.746094 148.351562 157.65625 146.34375 L 107.3125 96 L 157.65625 45.65625 C 160.023438 43.355469 160.734375 39.839844 159.449219 36.800781 C 158.160156 33.761719 155.140625 31.824219 151.84375 31.921875 C 149.765625 31.984375 147.792969 32.851562 146.34375 34.34375 L 96 84.6875 L 45.65625 34.34375 C 44.148438 32.796875 42.082031 31.921875 39.921875 31.921875 Z M 39.921875 31.921875 "/>
</g>
</svg>
